<svg id="eIszcE6WPxv1" xmlns="http://www.w3.org/2000/svg" xmlnsXlink="http://www.w3.org/1999/xlink" viewBox="0 0 500 500" shapeRendering="geometricPrecision" textRendering="geometricPrecision"><g transform="translate(178.81521 56.276566)"><g transform="translate(.000001-.230003)"><polyline points="95.08,211.35 95.01,240.85 67.43,222.36 66.1,195.67" fill="#fc0820" stroke="#fff" strokeWidth="3" strokeLinecap="round" strokeLinejoin="round" strokeMiterlimit={10} /><polyline points="95.1,210.93 95.01,240.85 122.38,222.36 123.74,195.3" fill="#fc0820" stroke="#fff" strokeWidth={3} strokeLinecap="round" strokeLinejoin="round" strokeMiterlimit={10} /><polygon points="95.18,212.74 66.54,194.1 95.18,175.47 123.82,194.1" fill="#fc0820" stroke="#fff" strokeWidth={3} strokeLinecap="round" strokeLinejoin="round" strokeMiterlimit={10} /><line x1="95.18" y1="175.47" x2="95.18" y2="211.94" fill="#fff" stroke="#fff" strokeWidth={3} strokeLinecap="round" strokeLinejoin="round" strokeMiterlimit={10} /><polygon points="96.68,178.24 96.67,209.98 121.06,194.1" fill="#a60010" /><polyline points="121.014625,193.990894 133.54,187.91 107.93,171.61 94.775814,175.258492" transform="matrix(.999269-.038218 0.038218 0.999269-5.144086 3.650945)" fill="#fc0820" stroke="#fff" strokeWidth={3} strokeLinecap="round" strokeLinejoin="round" strokeMiterlimit={10} /><polyline points="95.15,212.83 80.91,218.21 55.3,199.8 66.51,194.19" transform="matrix(1 0.000059-.000059 1 0.187168 0.995561)" fill="#fc0820" stroke="#fff" strokeWidth={3} strokeLinecap="round" strokeLinejoin="round" strokeMiterlimit={10} /><polyline points="95.18,212.74 109.42,218.12 135.02,199.71 123.82,194.1" transform="matrix(.945953 0.041478-.044505 1.014992 15.393677-6.864024)" fill="#fc0820" stroke="#fff" strokeWidth={3} strokeLinecap="round" strokeLinejoin="round" strokeMiterlimit={10} /><polyline points="95.18,175.47 82.92,171.94 56.58,188.05 66.06,194.01" transform="matrix(.910455 0.036132-.041558 1.047202 14.398809-11.3784)" fill="#fc0820" stroke="#fff" strokeWidth={3} strokeLinecap="round" strokeLinejoin="round" strokeMiterlimit={10} /><g id="eIszcE6WPxv13" transform="translate(0-1.999999)" opacity={0}><g id="eIszcE6WPxv14" transform="translate(-43 42)"><g><path d="M141.25,158.55l-2.5-1.37-1.37-2.5c-.2-.37-.82-.37-1.03,0l-1.37,2.5-2.5,1.37c-.19.1-.3.3-.3.51s.12.41.3.51l2.5,1.37l1.37,2.5c.1.19.3.3.51.3s.41-.12.51-.3l1.37-2.5l2.5-1.37c.19-.1.3-.3.3-.51.02-.21-.1-.41-.29-.51Z" fill="#fc0820" /></g></g><g id="eIszcE6WPxv17" transform="translate(26 50)"><g><path d="M74.78,149l-2.5-1.37-1.37-2.5c-.2-.37-.82-.37-1.03,0l-1.37,2.5-2.5,1.37c-.19.1-.3.3-.3.51s.12.41.3.51l2.5,1.37l1.37,2.5c.1.19.3.3.51.3s.41-.12.51-.3l1.37-2.5l2.5-1.37c.19-.1.3-.3.3-.51.01-.21-.11-.41-.29-.51Z" fill="#fc0820" /></g></g><g id="eIszcE6WPxv20" transform="translate(49 7)"><g><path d="M51.37,189.67l-3.74-2.05-2.05-3.74c-.31-.56-1.23-.56-1.54,0L42,187.62l-3.74,2.05c-.28.15-.46.45-.46.77s.17.62.46.77L42,193.26L44.05,197c.15.28.45.46.77.46s.62-.17.77-.46l2.05-3.74l3.74-2.05c.28-.15.46-.45.46-.77-.01-.32-.19-.62-.47-.77Z" fill="#fc0820" /></g></g><g id="eIszcE6WPxv23" transform="translate(-14 41)"><g><path d="M113.2,160.47c0-.48-.39-.86-.86-.86h-.5l.36-.4c.34-.34.34-.9,0-1.24s-.93-.35-1.27-.01l-.4.35v-.5c0-.48-.39-.86-.86-.86-.48,0-.86.39-.86.86v.5l-.31-.36c-.34-.34-.86-.34-1.19,0-.34.34-.32.93.01,1.26l.37.4h-.5c-.48,0-.86.39-.86.86c0,.48.39.86.86.86h.51l-.36.31c-.34.34-.34.86,0,1.2.17.17.39.24.61.24s.39-.09.56-.26l.31-.36v.5c0,.48.39.86.86.86.48,0,.86-.39.86-.86v-.5l.4.36c.17.17.41.25.63.25s.45-.08.62-.25c.34-.34.34-.84.01-1.17l-.35-.31h.51c.45,0,.84-.39.84-.87Z" fill="#fc0820" /></g></g><g id="eIszcE6WPxv26" transform="translate(29-28)"><g><path d="M71.76,240.29c0-.65-.53-1.17-1.17-1.17h-.69l.49-.55c.46-.46.46-1.23,0-1.69s-1.27-.47-1.73-.02l-.55.47v-.69c0-.65-.53-1.17-1.17-1.17-.65,0-1.17.53-1.17,1.17v.69l-.42-.49c-.46-.46-1.17-.46-1.63,0s-.44,1.26.02,1.72l.5.55h-.69c-.65,0-1.17.53-1.17,1.17c0,.65.53,1.17,1.17,1.17h.69l-.49.42c-.46.46-.46,1.17,0,1.63.23.23.53.33.83.33s.54-.12.77-.35l.42-.49v.69c0,.65.53,1.17,1.17,1.17.65,0,1.17-.53,1.17-1.17v-.68l.55.49c.23.23.56.34.86.34s.62-.11.85-.34c.46-.46.47-1.14.01-1.6l-.48-.42h.69c.64-.01,1.17-.54,1.17-1.18Z" fill="#fff" /></g></g><g id="eIszcE6WPxv29" transform="translate(-35-30)"><g><path d="M135.45,235.3c0-.6-.49-1.09-1.09-1.09h-.64l.45-.51c.43-.43.43-1.15,0-1.57-.43-.43-1.18-.44-1.6-.01l-.51.44v-.64c0-.6-.49-1.09-1.09-1.09s-1.09.49-1.09,1.09v.64l-.39-.45c-.43-.43-1.09-.43-1.51,0-.43.43-.41,1.17.02,1.6l.47.51h-.64c-.6,0-1.09.49-1.09,1.09s.49,1.09,1.09,1.09h.64l-.45.39c-.43.43-.43,1.09,0,1.51.21.21.49.31.77.31s.5-.11.71-.33l.39-.46v.64c0,.6.49,1.09,1.09,1.09s1.09-.49,1.09-1.09v-.64l.51.45c.21.21.52.32.8.32s.57-.11.79-.32c.43-.43.43-1.06.01-1.48l-.44-.39h.64c.58-.01,1.07-.5,1.07-1.1Z" fill="#fc0820" /></g></g><path id="eIszcE6WPxv32" d="M89.41,159.88c0,1.45-1.18,2.63-2.63,2.63s-2.63-1.18-2.63-2.63s1.18-2.63,2.63-2.63c1.46,0,2.63,1.18,2.63,2.63Z" transform="translate(9 42)" fill="#fc0820" /><path id="eIszcE6WPxv33" d="M63.13,166.93c0,1.12-.91,2.03-2.03,2.03s-2.03-.91-2.03-2.03.91-2.03,2.03-2.03s2.03.91,2.03,2.03Z" transform="translate(34 34)" fill="#fc0820" /><path id="eIszcE6WPxv34" d="M101.36,161.55c0,1.06-.86,1.91-1.91,1.91s-1.91-.86-1.91-1.91c0-1.06.86-1.91,1.91-1.91s1.91.86,1.91,1.91Z" transform="translate(-4 39)" fill="#fc0820" /><circle id="eIszcE6WPxv35" r="1.85" transform="translate(96.2 198.83)" fill="#fff" /><path id="eIszcE6WPxv36" d="M125.02,172.79c0,1.06-.86,1.91-1.91,1.91-1.06,0-1.91-.86-1.91-1.91c0-1.06.86-1.91,1.91-1.91c1.06-.01,1.91.85,1.91,1.91Z" transform="translate(-27 29)" fill="#fff" /><circle id="eIszcE6WPxv37" r="2.39" transform="translate(96.24 204)" fill="#fff" /><path id="eIszcE6WPxv38" d="M79.14,192.02c0,1.12-.91,2.03-2.03,2.03s-2.03-.91-2.03-2.03.91-2.03,2.03-2.03s2.03.91,2.03,2.03Z" transform="translate(46.857143-34.233083)" fill="#fff" /><circle id="eIszcE6WPxv39" r="1.91" transform="translate(95.83 199.26)" fill="#fff" /><circle id="eIszcE6WPxv40" r="2.15" transform="translate(95.71 199.58)" fill="#fff" /></g></g></g>
      </svg>